<svg width="72" height="31" viewBox="0 0 72 31" xmlns="http://www.w3.org/2000/svg" xmlns:xlink="http://www.w3.org/1999/xlink"><defs><path d="M58.003 0C66.158 0 72 6.456 72 14.363V31l-5.985-.041V14.322c0-4.3-3.578-8.323-8.012-8.323-4.435 0-8.007 4.018-8.007 8.317v16.635L44 30.998V14.363C44 10.065 40.431 6 36 6c-4.433 0-7.966 4.074-7.966 8.372V30.96l-6.004.02V14.37c0-4.299-3.594-8.372-8.029-8.372-4.434 0-7.996 4.026-7.996 8.325v16.635H0V14.324C0 6.416 5.844 0 14.001 0c4.477 0 8.219 1.736 10.996 5.003C27.777 1.734 31.523 0 36 0c4.473 0 8.214 1.736 10.996 5.003C49.774 1.733 53.523 0 58.003 0z" id="a"/></defs><g fill="none"><use fill="#FFF" fill-rule="evenodd" xlink:href="#a"/><path stroke="#000" d="M.5 30.459h5.005V14.324c0-4.678 3.88-8.825 8.496-8.825 4.614 0 8.53 4.192 8.53 8.872v16.106l5.003-.017V14.37c0-4.69 3.863-8.87 8.466-8.87 4.608 0 8.5 4.182 8.5 8.864v16.131l4.996-.039v-16.14c0-4.675 3.889-8.817 8.507-8.817s8.512 4.148 8.512 8.823v16.14l4.985.035V14.363C71.5 6.564 65.721.5 58.003.5c-4.31 0-7.928 1.652-10.626 4.827l-.381.448-.381-.448C43.912 2.152 40.3.5 36 .5c-4.306 0-7.922 1.652-10.622 4.827l-.381.448-.381-.448C21.917 2.152 18.306.5 14 .5 6.273.5.5 6.533.5 14.324v16.135z"/></g></svg>